<svg width="500" height="500" viewBox="0 0 500 500" fill="none" xmlns="http://www.w3.org/2000/svg">
<g clip-path="url(#clip0_39_22)">
<path d="M28.2843 278.284C14.9509 264.951 8.28427 258.284 8.28427 250C8.28427 241.716 14.9509 235.049 28.2843 221.716L113.137 136.863L226.274 250L113.137 363.137L28.2843 278.284Z" fill="#4F46E5"/>
<path d="M137 387L250.137 273.863L363.274 387L278.421 471.853C265.088 485.186 258.421 491.853 250.137 491.853C241.853 491.853 235.186 485.186 221.853 471.853L137 387Z" fill="#4F46E5"/>
<path d="M274 250L387.137 136.863L471.99 221.716C485.323 235.049 491.99 241.716 491.99 250C491.99 258.284 485.323 264.951 471.99 278.284L387.137 363.137L274 250Z" fill="#4F46E5"/>
<path d="M137 113L221.853 28.1472C235.186 14.8139 241.853 8.14719 250.137 8.14719C258.421 8.14719 265.088 14.8139 278.421 28.1472L363.274 113L250.137 226.137L137 113Z" fill="#4F46E5"/>
</g>
<defs>
<clipPath id="clip0_39_22">
<rect width="500" height="500" fill="white"/>
</clipPath>
</defs>
</svg>
